<mxfile host="app.diagrams.net" modified="2020-10-16T08:53:24.214Z" agent="5.0 (Windows NT 10.0; Win64; x64) AppleWebKit/537.36 (KHTML, like Gecko) Chrome/85.0.4183.121 Safari/537.36 OPR/71.0.3770.228" etag="CY4M_nJ6oiMuccauSSRe" version="13.8.0" type="github">
  <diagram name="Page-1" id="2c4490ee-f0b8-94ab-5012-d5dc3445f7a3">
    <mxGraphModel dx="1996" dy="1096" grid="1" gridSize="10" guides="1" tooltips="1" connect="0" arrows="1" fold="1" page="1" pageScale="1.5" pageWidth="1169" pageHeight="826" background="#ffffff" math="0" shadow="0">
      <root>
        <mxCell id="0" style=";html=1;" />
        <mxCell id="1" style=";html=1;" parent="0" />
        <mxCell id="wme-i7As3sNCEtLZGVM8-2" value="" style="align=left;strokeColor=#CCCCCC;html=1;" vertex="1" parent="1">
          <mxGeometry x="80" y="80" width="60" height="1080" as="geometry" />
        </mxCell>
        <mxCell id="wme-i7As3sNCEtLZGVM8-4" value="" style="align=left;strokeColor=#CCCCCC;html=1;" vertex="1" parent="1">
          <mxGeometry x="140" y="80" width="60" height="1080" as="geometry" />
        </mxCell>
        <mxCell id="wme-i7As3sNCEtLZGVM8-5" value="" style="align=left;strokeColor=#CCCCCC;html=1;" vertex="1" parent="1">
          <mxGeometry x="200" y="80" width="60" height="1080" as="geometry" />
        </mxCell>
        <mxCell id="wme-i7As3sNCEtLZGVM8-6" value="" style="align=left;strokeColor=#CCCCCC;html=1;" vertex="1" parent="1">
          <mxGeometry x="260" y="80" width="60" height="1080" as="geometry" />
        </mxCell>
        <mxCell id="wme-i7As3sNCEtLZGVM8-7" value="" style="align=left;strokeColor=#CCCCCC;html=1;" vertex="1" parent="1">
          <mxGeometry x="320" y="80" width="60" height="1080" as="geometry" />
        </mxCell>
        <mxCell id="wme-i7As3sNCEtLZGVM8-8" value="" style="align=left;strokeColor=#CCCCCC;html=1;" vertex="1" parent="1">
          <mxGeometry x="380" y="80" width="60" height="1080" as="geometry" />
        </mxCell>
        <mxCell id="wme-i7As3sNCEtLZGVM8-9" value="" style="align=left;strokeColor=#CCCCCC;html=1;" vertex="1" parent="1">
          <mxGeometry x="440" y="80" width="60" height="1080" as="geometry" />
        </mxCell>
        <mxCell id="wme-i7As3sNCEtLZGVM8-10" value="" style="align=left;strokeColor=#CCCCCC;html=1;" vertex="1" parent="1">
          <mxGeometry x="500" y="80" width="60" height="1080" as="geometry" />
        </mxCell>
        <mxCell id="wme-i7As3sNCEtLZGVM8-11" value="" style="align=left;strokeColor=#CCCCCC;html=1;" vertex="1" parent="1">
          <mxGeometry x="560" y="80" width="60" height="1080" as="geometry" />
        </mxCell>
        <mxCell id="wme-i7As3sNCEtLZGVM8-12" value="" style="align=left;strokeColor=#CCCCCC;html=1;" vertex="1" parent="1">
          <mxGeometry x="620" y="80" width="60" height="1080" as="geometry" />
        </mxCell>
        <mxCell id="wme-i7As3sNCEtLZGVM8-13" value="" style="align=left;strokeColor=#CCCCCC;html=1;" vertex="1" parent="1">
          <mxGeometry x="680" y="80" width="60" height="1080" as="geometry" />
        </mxCell>
        <mxCell id="wme-i7As3sNCEtLZGVM8-14" value="" style="align=left;strokeColor=#CCCCCC;html=1;" vertex="1" parent="1">
          <mxGeometry x="740" y="80" width="60" height="1080" as="geometry" />
        </mxCell>
        <mxCell id="wme-i7As3sNCEtLZGVM8-27" value="" style="rounded=0;whiteSpace=wrap;html=1;fontSize=14;strokeColor=#66B2FF;fillColor=#CCE5FF;" vertex="1" parent="1">
          <mxGeometry x="140" y="140" width="120" height="20" as="geometry" />
        </mxCell>
        <mxCell id="wme-i7As3sNCEtLZGVM8-28" value="Start" style="text;html=1;strokeColor=none;fillColor=none;align=left;verticalAlign=middle;whiteSpace=wrap;rounded=0;fontSize=14;" vertex="1" parent="1">
          <mxGeometry x="145" y="120" width="40" height="20" as="geometry" />
        </mxCell>
        <mxCell id="wme-i7As3sNCEtLZGVM8-30" value="" style="rhombus;whiteSpace=wrap;html=1;fontSize=14;fillColor=#000000;strokeColor=none;" vertex="1" parent="1">
          <mxGeometry x="135" y="120" width="10" height="20" as="geometry" />
        </mxCell>
        <mxCell id="wme-i7As3sNCEtLZGVM8-31" value="A1" style="text;html=1;strokeColor=none;fillColor=none;align=right;verticalAlign=middle;whiteSpace=wrap;rounded=0;fontSize=14;" vertex="1" parent="1">
          <mxGeometry x="100" y="140" width="40" height="20" as="geometry" />
        </mxCell>
        <mxCell id="wme-i7As3sNCEtLZGVM8-32" value="" style="rounded=0;whiteSpace=wrap;html=1;fontSize=14;strokeColor=#66B2FF;fillColor=#CCE5FF;" vertex="1" parent="1">
          <mxGeometry x="260" y="200" width="120" height="20" as="geometry" />
        </mxCell>
        <mxCell id="wme-i7As3sNCEtLZGVM8-35" value="(M1)" style="text;html=1;strokeColor=none;fillColor=none;align=left;verticalAlign=middle;whiteSpace=wrap;rounded=0;fontSize=14;" vertex="1" parent="1">
          <mxGeometry x="265" y="180" width="40" height="20" as="geometry" />
        </mxCell>
        <mxCell id="wme-i7As3sNCEtLZGVM8-36" value="" style="rhombus;whiteSpace=wrap;html=1;fontSize=14;fillColor=#000000;strokeColor=none;" vertex="1" parent="1">
          <mxGeometry x="255" y="180" width="10" height="20" as="geometry" />
        </mxCell>
        <mxCell id="wme-i7As3sNCEtLZGVM8-38" value="" style="rounded=0;whiteSpace=wrap;html=1;fontSize=14;strokeColor=#66B2FF;fillColor=#CCE5FF;" vertex="1" parent="1">
          <mxGeometry x="320" y="230" width="120" height="20" as="geometry" />
        </mxCell>
        <mxCell id="wme-i7As3sNCEtLZGVM8-39" value="A2" style="text;html=1;strokeColor=none;fillColor=none;align=right;verticalAlign=middle;whiteSpace=wrap;rounded=0;fontSize=14;" vertex="1" parent="1">
          <mxGeometry x="220" y="200" width="40" height="20" as="geometry" />
        </mxCell>
        <mxCell id="wme-i7As3sNCEtLZGVM8-40" value="A3" style="text;html=1;strokeColor=none;fillColor=none;align=right;verticalAlign=middle;whiteSpace=wrap;rounded=0;fontSize=14;" vertex="1" parent="1">
          <mxGeometry x="280" y="230" width="40" height="20" as="geometry" />
        </mxCell>
        <mxCell id="wme-i7As3sNCEtLZGVM8-41" value="" style="align=left;strokeColor=#CCCCCC;html=1;" vertex="1" parent="1">
          <mxGeometry x="800" y="80" width="60" height="1080" as="geometry" />
        </mxCell>
        <mxCell id="wme-i7As3sNCEtLZGVM8-42" value="" style="align=left;strokeColor=#CCCCCC;html=1;" vertex="1" parent="1">
          <mxGeometry x="860" y="80" width="60" height="1080" as="geometry" />
        </mxCell>
        <mxCell id="wme-i7As3sNCEtLZGVM8-43" value="" style="align=left;strokeColor=#CCCCCC;html=1;" vertex="1" parent="1">
          <mxGeometry x="920" y="80" width="60" height="1080" as="geometry" />
        </mxCell>
        <mxCell id="wme-i7As3sNCEtLZGVM8-44" value="" style="align=left;strokeColor=#CCCCCC;html=1;" vertex="1" parent="1">
          <mxGeometry x="980" y="80" width="60" height="1080" as="geometry" />
        </mxCell>
        <mxCell id="wme-i7As3sNCEtLZGVM8-45" value="" style="align=left;strokeColor=#CCCCCC;html=1;" vertex="1" parent="1">
          <mxGeometry x="1040" y="80" width="60" height="1080" as="geometry" />
        </mxCell>
        <mxCell id="wme-i7As3sNCEtLZGVM8-46" value="" style="align=left;strokeColor=#CCCCCC;html=1;" vertex="1" parent="1">
          <mxGeometry x="1100" y="80" width="60" height="1080" as="geometry" />
        </mxCell>
        <mxCell id="wme-i7As3sNCEtLZGVM8-47" value="" style="align=left;strokeColor=#CCCCCC;html=1;" vertex="1" parent="1">
          <mxGeometry x="1160" y="80" width="60" height="1080" as="geometry" />
        </mxCell>
        <mxCell id="wme-i7As3sNCEtLZGVM8-48" value="" style="align=left;strokeColor=#CCCCCC;html=1;" vertex="1" parent="1">
          <mxGeometry x="1220" y="80" width="60" height="1080" as="geometry" />
        </mxCell>
        <mxCell id="wme-i7As3sNCEtLZGVM8-49" value="" style="align=left;strokeColor=#CCCCCC;html=1;" vertex="1" parent="1">
          <mxGeometry x="1280" y="80" width="60" height="1080" as="geometry" />
        </mxCell>
        <mxCell id="wme-i7As3sNCEtLZGVM8-50" value="" style="align=left;strokeColor=#CCCCCC;html=1;" vertex="1" parent="1">
          <mxGeometry x="1340" y="80" width="60" height="1080" as="geometry" />
        </mxCell>
        <mxCell id="wme-i7As3sNCEtLZGVM8-51" value="" style="align=left;strokeColor=#CCCCCC;html=1;" vertex="1" parent="1">
          <mxGeometry x="1400" y="80" width="60" height="1080" as="geometry" />
        </mxCell>
        <mxCell id="wme-i7As3sNCEtLZGVM8-52" value="" style="align=left;strokeColor=#CCCCCC;html=1;fontStyle=1" vertex="1" parent="1">
          <mxGeometry x="1460" y="80" width="60" height="1080" as="geometry" />
        </mxCell>
        <mxCell id="wme-i7As3sNCEtLZGVM8-53" value="" style="align=left;strokeColor=#CCCCCC;html=1;fontStyle=1" vertex="1" parent="1">
          <mxGeometry x="1520" y="80" width="60" height="1080" as="geometry" />
        </mxCell>
        <mxCell id="wme-i7As3sNCEtLZGVM8-54" value="" style="align=left;strokeColor=#CCCCCC;html=1;fontStyle=1" vertex="1" parent="1">
          <mxGeometry x="1580" y="80" width="60" height="1080" as="geometry" />
        </mxCell>
        <mxCell id="wme-i7As3sNCEtLZGVM8-55" value="" style="align=left;strokeColor=#CCCCCC;html=1;fontStyle=1" vertex="1" parent="1">
          <mxGeometry x="1640" y="80" width="60" height="1080" as="geometry" />
        </mxCell>
        <mxCell id="wme-i7As3sNCEtLZGVM8-56" value="&lt;font style=&quot;font-size: 13px&quot;&gt;Uke&lt;/font&gt;" style="strokeWidth=1;fontStyle=0;html=1;align=left;" vertex="1" parent="1">
          <mxGeometry x="80" y="80" width="1620" height="30" as="geometry" />
        </mxCell>
        <mxCell id="wme-i7As3sNCEtLZGVM8-57" value="0" style="text;html=1;strokeColor=none;fillColor=none;align=center;verticalAlign=middle;whiteSpace=wrap;rounded=0;fontStyle=1;fontSize=14;" vertex="1" parent="1">
          <mxGeometry x="120" y="85" width="40" height="20" as="geometry" />
        </mxCell>
        <mxCell id="wme-i7As3sNCEtLZGVM8-58" value="1" style="text;html=1;strokeColor=none;fillColor=none;align=center;verticalAlign=middle;whiteSpace=wrap;rounded=0;fontStyle=1;fontSize=14;" vertex="1" parent="1">
          <mxGeometry x="180" y="85" width="40" height="20" as="geometry" />
        </mxCell>
        <mxCell id="wme-i7As3sNCEtLZGVM8-59" value="2" style="text;html=1;strokeColor=none;fillColor=none;align=center;verticalAlign=middle;whiteSpace=wrap;rounded=0;fontStyle=1;fontSize=14;" vertex="1" parent="1">
          <mxGeometry x="240" y="85" width="40" height="20" as="geometry" />
        </mxCell>
        <mxCell id="wme-i7As3sNCEtLZGVM8-60" value="3" style="text;html=1;strokeColor=none;fillColor=none;align=center;verticalAlign=middle;whiteSpace=wrap;rounded=0;fontStyle=1;fontSize=14;" vertex="1" parent="1">
          <mxGeometry x="300" y="85" width="40" height="20" as="geometry" />
        </mxCell>
        <mxCell id="wme-i7As3sNCEtLZGVM8-61" value="4" style="text;html=1;strokeColor=none;fillColor=none;align=center;verticalAlign=middle;whiteSpace=wrap;rounded=0;fontStyle=1;fontSize=14;" vertex="1" parent="1">
          <mxGeometry x="360" y="85" width="40" height="20" as="geometry" />
        </mxCell>
        <mxCell id="wme-i7As3sNCEtLZGVM8-62" value="5" style="text;html=1;strokeColor=none;fillColor=none;align=center;verticalAlign=middle;whiteSpace=wrap;rounded=0;fontStyle=1;fontSize=14;" vertex="1" parent="1">
          <mxGeometry x="420" y="85" width="40" height="20" as="geometry" />
        </mxCell>
        <mxCell id="wme-i7As3sNCEtLZGVM8-63" value="6" style="text;html=1;strokeColor=none;fillColor=none;align=center;verticalAlign=middle;whiteSpace=wrap;rounded=0;fontStyle=1;fontSize=14;" vertex="1" parent="1">
          <mxGeometry x="480" y="85" width="40" height="20" as="geometry" />
        </mxCell>
        <mxCell id="wme-i7As3sNCEtLZGVM8-64" value="7" style="text;html=1;strokeColor=none;fillColor=none;align=center;verticalAlign=middle;whiteSpace=wrap;rounded=0;fontStyle=1;fontSize=14;" vertex="1" parent="1">
          <mxGeometry x="540" y="85" width="40" height="20" as="geometry" />
        </mxCell>
        <mxCell id="wme-i7As3sNCEtLZGVM8-65" value="8" style="text;html=1;strokeColor=none;fillColor=none;align=center;verticalAlign=middle;whiteSpace=wrap;rounded=0;fontStyle=1;fontSize=14;" vertex="1" parent="1">
          <mxGeometry x="600" y="85" width="40" height="20" as="geometry" />
        </mxCell>
        <mxCell id="wme-i7As3sNCEtLZGVM8-66" value="9" style="text;html=1;strokeColor=none;fillColor=none;align=center;verticalAlign=middle;whiteSpace=wrap;rounded=0;fontStyle=1;fontSize=14;" vertex="1" parent="1">
          <mxGeometry x="660" y="85" width="40" height="20" as="geometry" />
        </mxCell>
        <mxCell id="wme-i7As3sNCEtLZGVM8-67" value="10" style="text;html=1;strokeColor=none;fillColor=none;align=center;verticalAlign=middle;whiteSpace=wrap;rounded=0;fontStyle=1;fontSize=14;" vertex="1" parent="1">
          <mxGeometry x="720" y="85" width="40" height="20" as="geometry" />
        </mxCell>
        <mxCell id="wme-i7As3sNCEtLZGVM8-68" value="11" style="text;html=1;strokeColor=none;fillColor=none;align=center;verticalAlign=middle;whiteSpace=wrap;rounded=0;fontStyle=1;fontSize=14;" vertex="1" parent="1">
          <mxGeometry x="780" y="85" width="40" height="20" as="geometry" />
        </mxCell>
        <mxCell id="wme-i7As3sNCEtLZGVM8-69" value="12&lt;span style=&quot;color: rgba(0 , 0 , 0 , 0) ; font-family: monospace ; font-size: 0px ; font-weight: 400&quot;&gt;%3CmxGraphModel%3E%3Croot%3E%3CmxCell%20id%3D%220%22%2F%3E%3CmxCell%20id%3D%221%22%20parent%3D%220%22%2F%3E%3CmxCell%20id%3D%222%22%20value%3D%2210%22%20style%3D%22text%3Bhtml%3D1%3BstrokeColor%3Dnone%3BfillColor%3Dnone%3Balign%3Dcenter%3BverticalAlign%3Dmiddle%3BwhiteSpace%3Dwrap%3Brounded%3D0%3BfontStyle%3D1%3BfontSize%3D14%3B%22%20vertex%3D%221%22%20parent%3D%221%22%3E%3CmxGeometry%20x%3D%22720%22%20y%3D%2285%22%20width%3D%2240%22%20height%3D%2220%22%20as%3D%22geometry%22%2F%3E%3C%2FmxCell%3E%3C%2Froot%3E%3C%2FmxGraphModel%3E&lt;/span&gt;" style="text;html=1;strokeColor=none;fillColor=none;align=center;verticalAlign=middle;whiteSpace=wrap;rounded=0;fontStyle=1;fontSize=14;" vertex="1" parent="1">
          <mxGeometry x="840" y="85" width="40" height="20" as="geometry" />
        </mxCell>
        <mxCell id="wme-i7As3sNCEtLZGVM8-70" value="13" style="text;html=1;strokeColor=none;fillColor=none;align=center;verticalAlign=middle;whiteSpace=wrap;rounded=0;fontStyle=1;fontSize=14;" vertex="1" parent="1">
          <mxGeometry x="900" y="85" width="40" height="20" as="geometry" />
        </mxCell>
        <mxCell id="wme-i7As3sNCEtLZGVM8-71" value="14" style="text;html=1;strokeColor=none;fillColor=none;align=center;verticalAlign=middle;whiteSpace=wrap;rounded=0;fontStyle=1;fontSize=14;" vertex="1" parent="1">
          <mxGeometry x="960" y="85" width="40" height="20" as="geometry" />
        </mxCell>
        <mxCell id="wme-i7As3sNCEtLZGVM8-72" value="15" style="text;html=1;strokeColor=none;fillColor=none;align=center;verticalAlign=middle;whiteSpace=wrap;rounded=0;fontStyle=1;fontSize=14;" vertex="1" parent="1">
          <mxGeometry x="1020" y="85" width="40" height="20" as="geometry" />
        </mxCell>
        <mxCell id="wme-i7As3sNCEtLZGVM8-73" value="16" style="text;html=1;strokeColor=none;fillColor=none;align=center;verticalAlign=middle;whiteSpace=wrap;rounded=0;fontStyle=1;fontSize=14;" vertex="1" parent="1">
          <mxGeometry x="1080" y="85" width="40" height="20" as="geometry" />
        </mxCell>
        <mxCell id="wme-i7As3sNCEtLZGVM8-74" value="17" style="text;html=1;strokeColor=none;fillColor=none;align=center;verticalAlign=middle;whiteSpace=wrap;rounded=0;fontStyle=1;fontSize=14;" vertex="1" parent="1">
          <mxGeometry x="1140" y="85" width="40" height="20" as="geometry" />
        </mxCell>
        <mxCell id="wme-i7As3sNCEtLZGVM8-75" value="18" style="text;html=1;strokeColor=none;fillColor=none;align=center;verticalAlign=middle;whiteSpace=wrap;rounded=0;fontStyle=1;fontSize=14;" vertex="1" parent="1">
          <mxGeometry x="1200" y="85" width="40" height="20" as="geometry" />
        </mxCell>
        <mxCell id="wme-i7As3sNCEtLZGVM8-76" value="19" style="text;html=1;strokeColor=none;fillColor=none;align=center;verticalAlign=middle;whiteSpace=wrap;rounded=0;fontStyle=1;fontSize=14;" vertex="1" parent="1">
          <mxGeometry x="1260" y="85" width="40" height="20" as="geometry" />
        </mxCell>
        <mxCell id="wme-i7As3sNCEtLZGVM8-77" value="20" style="text;html=1;strokeColor=none;fillColor=none;align=center;verticalAlign=middle;whiteSpace=wrap;rounded=0;fontStyle=1;fontSize=14;" vertex="1" parent="1">
          <mxGeometry x="1320" y="85" width="40" height="20" as="geometry" />
        </mxCell>
        <mxCell id="wme-i7As3sNCEtLZGVM8-78" value="21" style="text;html=1;strokeColor=none;fillColor=none;align=center;verticalAlign=middle;whiteSpace=wrap;rounded=0;fontStyle=1;fontSize=14;" vertex="1" parent="1">
          <mxGeometry x="1380" y="85" width="40" height="20" as="geometry" />
        </mxCell>
        <mxCell id="wme-i7As3sNCEtLZGVM8-79" value="22" style="text;html=1;strokeColor=none;fillColor=none;align=center;verticalAlign=middle;whiteSpace=wrap;rounded=0;fontStyle=1;fontSize=14;" vertex="1" parent="1">
          <mxGeometry x="1440" y="85" width="40" height="20" as="geometry" />
        </mxCell>
        <mxCell id="wme-i7As3sNCEtLZGVM8-80" value="23" style="text;html=1;strokeColor=none;fillColor=none;align=center;verticalAlign=middle;whiteSpace=wrap;rounded=0;fontStyle=1;fontSize=14;" vertex="1" parent="1">
          <mxGeometry x="1500" y="85" width="40" height="20" as="geometry" />
        </mxCell>
        <mxCell id="wme-i7As3sNCEtLZGVM8-81" value="24" style="text;html=1;strokeColor=none;fillColor=none;align=center;verticalAlign=middle;whiteSpace=wrap;rounded=0;fontStyle=1;fontSize=14;" vertex="1" parent="1">
          <mxGeometry x="1560" y="85" width="40" height="20" as="geometry" />
        </mxCell>
        <mxCell id="wme-i7As3sNCEtLZGVM8-82" value="25" style="text;html=1;strokeColor=none;fillColor=none;align=center;verticalAlign=middle;whiteSpace=wrap;rounded=0;fontStyle=1;fontSize=14;" vertex="1" parent="1">
          <mxGeometry x="1620" y="85" width="40" height="20" as="geometry" />
        </mxCell>
      </root>
    </mxGraphModel>
  </diagram>
</mxfile>
